<?xml version="1.0" standalone="no"?>
<!DOCTYPE svg PUBLIC "-//W3C//DTD SVG 20010904//EN"
 "http://www.w3.org/TR/2001/REC-SVG-20010904/DTD/svg10.dtd">
<svg version="1.0" xmlns="http://www.w3.org/2000/svg"
 width="648.000000pt" height="648.000000pt" viewBox="0 0 648.000000 648.000000"
 preserveAspectRatio="xMidYMid meet">
<metadata>
Created by potrace 1.14, written by Peter Selinger 2001-2017
</metadata>
<g transform="translate(0.000000,648.000000) scale(0.100000,-0.100000)"
fill="#000000" stroke="none">
<path d="M1805 6325 c-183 -34 -337 -138 -456 -308 -60 -87 -54 -169 39 -497
49 -171 69 -260 59 -260 -3 0 -47 29 -99 64 -164 112 -239 142 -289 115 -26
-14 -36 -41 -54 -157 -63 -409 -61 -948 5 -1274 40 -195 114 -387 194 -507 20
-29 36 -54 36 -56 0 -2 -33 8 -73 20 -160 51 -280 41 -431 -37 -160 -83 -369
-325 -491 -569 -83 -164 -153 -413 -192 -674 -21 -149 -24 -539 -5 -695 34
-271 111 -560 197 -735 121 -249 307 -447 510 -545 141 -69 148 -69 733 -70
l523 0 24 24 c30 30 32 57 7 79 -16 15 -54 17 -331 17 l-313 0 49 38 c102 81
200 208 286 372 57 108 146 356 168 469 14 72 18 69 48 -44 50 -182 149 -401
249 -551 110 -164 235 -275 380 -339 158 -69 71 -66 1630 -63 l1407 3 60 25
c182 77 381 275 503 500 99 184 184 415 216 594 60 327 62 630 5 969 -56 334
-193 716 -311 869 -64 84 -299 317 -340 339 -49 25 -183 46 -344 54 l-132 7
43 92 c172 366 241 929 179 1463 -49 427 -208 780 -468 1038 -115 113 -196
170 -311 216 l-60 24 -1390 2 c-1108 1 -1404 -1 -1460 -12z m248 -120 c228
-59 415 -268 522 -584 130 -382 211 -1011 176 -1366 -19 -188 -78 -439 -105
-447 -5 -2 -73 84 -150 191 -78 107 -150 197 -162 202 -34 12 -68 -11 -72 -49
-3 -27 18 -61 154 -249 87 -120 162 -224 167 -230 12 -16 -52 -130 -132 -236
-59 -80 -232 -247 -292 -284 -58 -37 -154 -56 -235 -49 -144 12 -268 74 -406
205 -256 242 -380 519 -429 961 -17 147 -17 556 0 725 14 141 37 315 44 321 2
2 69 -39 150 -91 80 -52 159 -98 177 -101 41 -9 75 10 95 51 29 62 22 98 -95
530 -16 61 -29 136 -30 167 0 50 4 62 36 105 56 74 94 111 158 154 52 35 165
79 202 79 12 0 14 -54 14 -325 0 -312 1 -326 20 -345 11 -11 29 -20 40 -20 11
0 29 9 40 20 19 19 20 33 20 350 0 375 -10 342 93 315z m2611 -5 c135 -42 320
-203 439 -381 70 -106 156 -284 196 -409 26 -80 71 -271 71 -301 0 -5 -199 -9
-463 -9 -510 0 -507 0 -507 -60 0 -60 -4 -60 513 -60 365 0 469 -3 472 -12 3
-7 6 -107 8 -222 l2 -209 -475 -258 -475 -258 -170 -1 c-191 0 -215 -7 -215
-60 0 -62 -17 -60 642 -60 l598 0 -6 -27 c-21 -88 -113 -301 -152 -350 l-17
-23 -1241 -2 -1242 -3 45 90 c62 123 106 241 137 365 27 110 56 310 56 386 l0
44 378 0 c417 0 422 1 422 60 0 59 -5 60 -421 60 l-376 0 -7 118 c-16 281 -62
588 -126 838 -22 86 -40 159 -40 161 0 1 267 3 593 3 653 0 637 -2 637 60 0
62 18 60 -661 60 l-617 0 -22 55 c-52 129 -168 290 -271 375 l-60 50 1144 0
c1122 0 1146 0 1211 -20z m721 -1837 c-2 -16 -9 -68 -15 -118 -12 -94 -34
-213 -42 -221 -3 -2 -143 -3 -312 -2 l-307 3 333 182 c183 100 336 182 340
182 4 1 5 -11 3 -26z m-4240 -1013 c173 -65 349 -234 446 -431 47 -93 95 -226
133 -366 122 -446 147 -899 71 -1306 -22 -120 -87 -352 -103 -369 -4 -3 -61
78 -128 180 -131 203 -155 227 -200 198 -46 -31 -35 -59 121 -297 l145 -222
-31 -56 c-136 -243 -306 -377 -526 -415 l-33 -5 0 329 c0 317 -1 331 -20 350
-11 11 -29 20 -40 20 -11 0 -29 -9 -40 -20 -19 -19 -20 -33 -20 -346 l0 -325
-22 7 c-145 45 -301 163 -413 312 -207 274 -319 669 -332 1162 -6 222 9 410
43 575 23 110 76 305 83 305 3 0 64 -77 136 -171 71 -94 139 -176 152 -182 34
-15 73 14 73 56 0 24 -16 52 -63 112 -35 44 -105 135 -156 202 l-93 123 37 67
c155 283 361 490 531 533 60 15 181 5 249 -20z m1615 -308 c0 -373 1 -382 60
-382 58 0 60 10 60 373 l0 330 30 -7 c111 -22 295 -129 378 -221 49 -54 102
-139 102 -166 0 -13 -177 -366 -256 -511 -59 -108 -65 -135 -33 -164 35 -32
99 -20 397 72 63 20 115 34 117 32 5 -5 42 -234 62 -378 55 -408 -16 -834
-201 -1215 -136 -277 -344 -501 -500 -536 -75 -16 -217 -7 -290 19 -182 66
-345 228 -465 462 l-53 102 146 193 c159 211 171 238 121 271 -20 13 -31 14
-49 7 -12 -6 -76 -83 -142 -172 -65 -88 -122 -160 -126 -161 -8 0 -47 124 -77
245 -90 360 -84 807 15 1215 38 156 129 422 181 530 40 84 57 107 152 200 62
62 128 117 159 134 69 36 150 65 185 66 l27 0 0 -338z m2675 328 c251 -15 239
-10 388 -162 70 -71 127 -134 127 -139 0 -5 -69 -9 -157 -9 -132 0 -159 -3
-175 -17 -22 -20 -23 -61 -1 -85 15 -16 35 -18 220 -18 l204 0 49 -102 c227
-479 289 -1108 165 -1655 l-5 -23 -747 0 c-681 0 -748 -1 -765 -17 -22 -20
-23 -61 -1 -85 15 -16 36 -18 248 -18 l231 0 350 -236 c192 -130 358 -243 369
-250 18 -13 15 -18 -65 -97 -99 -97 -173 -149 -253 -177 -55 -20 -82 -20
-1222 -20 -641 0 -1165 2 -1165 4 0 3 25 29 56 58 31 29 86 90 121 136 l65 82
496 0 c447 0 497 2 514 17 22 20 23 61 1 85 -15 17 -43 18 -475 18 -252 0
-458 2 -458 4 0 1 22 50 49 107 115 246 184 495 213 773 l12 116 700 0 c637 0
701 1 718 17 22 20 23 61 1 85 -15 17 -51 18 -717 18 l-702 0 -13 138 c-12
127 -52 407 -66 465 l-7 25 831 -6 c792 -5 832 -4 851 13 25 23 26 67 1 89
-17 15 -58 17 -448 16 l-429 0 -516 242 -516 243 -21 50 c-43 102 -143 212
-281 307 -24 16 34 17 1025 17 578 0 1118 -4 1200 -9z m-3681 -357 c65 -25 83
-27 209 -28 75 0 137 -1 137 -2 0 -1 -13 -35 -29 -75 -62 -160 -159 -490 -162
-553 0 -11 -18 49 -39 132 -48 191 -99 341 -155 461 -24 50 -41 92 -38 92 3 0
38 -12 77 -27z m2089 -304 c188 -88 349 -165 357 -169 8 -5 -109 -6 -262 -3
-266 6 -278 5 -278 -12 0 -17 -1 -17 -12 -2 -12 15 -29 11 -188 -38 -96 -30
-180 -55 -186 -55 -7 0 38 99 100 220 61 121 115 220 119 220 5 0 162 -72 350
-161z m2357 -1683 c0 -39 -158 -371 -177 -371 -13 0 -562 368 -563 378 0 4
167 7 370 7 310 0 370 -2 370 -14z"/>
<path d="M2236 5484 c-20 -20 -21 -63 -1 -91 26 -38 75 -198 96 -319 11 -66
23 -189 26 -274 6 -169 15 -200 58 -200 14 0 34 9 45 20 18 18 20 33 20 139 0
268 -81 639 -157 723 -20 22 -66 23 -87 2z"/>
<path d="M1867 4849 c-9 -5 -27 -29 -40 -52 -18 -35 -22 -58 -22 -137 0 -80 4
-102 23 -138 27 -52 61 -70 97 -54 84 38 101 281 25 362 -29 31 -53 37 -83 19z"/>
<path d="M1360 4660 c-24 -24 -25 -52 -4 -230 57 -495 214 -838 429 -936 75
-35 119 -40 150 -20 45 30 23 106 -31 106 -40 0 -125 53 -174 108 -125 140
-224 447 -260 811 -5 57 -10 112 -10 122 0 25 -35 59 -60 59 -11 0 -29 -9 -40
-20z"/>
<path d="M4322 5724 c-14 -10 -22 -26 -22 -44 0 -48 29 -60 150 -60 121 0 150
12 150 60 0 48 -29 60 -150 60 -79 0 -111 -4 -128 -16z"/>
<path d="M3722 5084 c-14 -10 -22 -26 -22 -44 0 -52 26 -60 190 -60 164 0 190
8 190 60 0 52 -26 60 -190 60 -116 0 -150 -3 -168 -16z"/>
<path d="M930 3000 c-39 -39 -20 -82 47 -104 143 -48 299 -249 377 -490 48
-146 86 -395 86 -568 0 -45 5 -63 20 -78 26 -26 55 -25 81 1 21 21 22 28 16
158 -16 323 -86 590 -208 791 -69 113 -192 234 -280 278 -77 37 -111 40 -139
12z"/>
<path d="M947 2009 c-9 -5 -27 -29 -40 -52 -18 -35 -22 -58 -22 -137 0 -80 4
-102 23 -138 29 -54 63 -72 100 -52 83 48 98 279 22 360 -29 31 -53 37 -83 19z"/>
<path d="M439 1859 c-20 -20 -21 -28 -14 -123 18 -273 68 -527 113 -578 19
-22 65 -23 86 -2 21 20 20 48 -3 109 -25 65 -58 266 -72 435 -6 84 -16 144
-25 158 -18 28 -57 29 -85 1z"/>
<path d="M2411 2629 c-46 -75 -123 -438 -143 -667 -14 -164 -7 -194 46 -200
51 -6 62 16 70 141 12 188 55 410 128 664 17 60 1 93 -47 93 -29 0 -39 -6 -54
-31z"/>
<path d="M2770 1990 c-76 -81 -61 -312 22 -360 37 -20 71 -2 100 52 19 36 23
58 23 138 0 79 -4 102 -23 137 -37 70 -77 81 -122 33z"/>
<path d="M3296 1838 c-8 -14 -19 -74 -25 -148 -48 -547 -214 -911 -430 -946
-119 -19 -104 -137 16 -120 135 18 265 132 356 312 87 172 162 494 183 785 6
90 5 98 -15 118 -28 28 -67 27 -85 -1z"/>
<path d="M5637 1762 c-22 -24 -21 -65 1 -85 15 -14 41 -17 134 -17 126 0 148
9 148 62 0 48 -25 58 -152 58 -99 0 -117 -3 -131 -18z"/>
</g>
</svg>
