<svg width="162" height="157" viewBox="0 0 162 157" fill="none" xmlns="http://www.w3.org/2000/svg">
<path d="M54 74.5V2H104C118.8 2 123.167 6.66667 123.5 9C144.3 21 135.5 57.6667 128.5 74.5H54Z" fill="#8C7560"/>
<path d="M38 80.5C38 80.5 58.5 66 143 75.5C165 77.9734 166.5 144.5 140 154C138.227 154.636 31 154 31 154L38 80.5Z" fill="#745D4A"/>
<path d="M47 113C47 135.091 39.5 155.5 24.5 153C12.0736 153 2 135.091 2 113C2 90.9086 12.0736 73 24.5 73C36.9264 73 47 90.9086 47 113Z" fill="#B5906A"/>
<path fill-rule="evenodd" clip-rule="evenodd" d="M70 153.5C84.2202 156 92.5 135.591 92.5 113.5C92.5 108.386 91.9601 103.496 90.9761 99L78 101.5L86 84.5C82.1242 78.8742 75.3938 73.5 70 73.5C57 72 47.5 91.4086 47.5 113.5C47.5 135.591 57.5736 153.5 70 153.5Z" fill="#B5906A"/>
<path fill-rule="evenodd" clip-rule="evenodd" d="M49.239 83.0198C35 83.0198 25.8838 66.0737 25 44C24.7954 38.8898 26.085 29.0359 27 24.5L38 29.4979L34.5 11.5C38.5875 5.70602 40.9984 2.74029 47 2.5C61.4048 0.422065 69.1162 19.9263 70 42C70.8838 64.0737 63.0656 82.4662 49.239 83.0198Z" fill="#B5906A"/>
<ellipse cx="48" cy="44" rx="12" ry="28" fill="#A67749"/>
<ellipse cx="71" cy="116" rx="12" ry="28" fill="#A67749"/>
<ellipse cx="24" cy="115" rx="12" ry="28" fill="#A67749"/>
<path d="M49 20C49 20.5 48.5 21.5 47.5 21.5C46.5 21.5 46 20.5 46 20C46 18.8954 46.6716 18 47.5 18C48.3284 18 49 18.8954 49 20Z" fill="black"/>
<path d="M39 114.5C39 115 38.5 116 37.5 116C36.5 116 36 115 36 114.5C36 113.395 36.6716 112.5 37.5 112.5C38.3284 112.5 39 113.395 39 114.5Z" fill="black"/>
<path d="M59.5 114C59.5288 114.499 59.0873 115.526 58.0889 115.584C57.0906 115.642 56.5338 114.672 56.505 114.173C56.4413 113.07 57.0602 112.137 57.8873 112.09C58.7143 112.042 59.4364 112.897 59.5 114Z" fill="black"/>
<path d="M72 91.5C72 92 71.5 93 70.5 93C69.5 93 69 92 69 91.5C69 90.3954 69.6716 89.5 70.5 89.5C71.3284 89.5 72 90.3954 72 91.5Z" fill="black"/>
<path d="M23 137C23 136.5 23.5 135.5 24.5 135.5C25.5 135.5 26 136.5 26 137C26 138.105 25.3284 139 24.5 139C23.6716 139 23 138.105 23 137Z" fill="black"/>
<path d="M10.5 114C10.5 113.5 11 112.5 12 112.5C13 112.5 13.5 113.5 13.5 114C13.5 115.105 12.8284 116 12 116C11.1716 116 10.5 115.105 10.5 114Z" fill="black"/>
<path d="M15.8921 128.939C16.1063 129.391 16.0831 130.509 15.1795 130.937C14.276 131.366 13.3957 130.677 13.1815 130.225C12.7082 129.227 12.9313 128.13 13.6798 127.775C14.4283 127.42 15.4188 127.941 15.8921 128.939Z" fill="black"/>
<path d="M33.5004 44.046C33.4927 43.5461 33.9773 42.5385 34.9772 42.5232C35.9771 42.5078 36.4923 43.5001 36.5 44C36.5169 45.1044 35.8592 46.0101 35.0309 46.0228C34.2025 46.0355 33.5173 45.1505 33.5004 44.046Z" fill="black"/>
<path d="M84.9996 114.454C84.992 113.954 84.4767 112.962 83.4768 112.977C82.4769 112.993 81.9923 114 82 114.5C82.0169 115.604 82.7022 116.489 83.5305 116.477C84.3588 116.464 85.0166 115.558 84.9996 114.454Z" fill="black"/>
<path d="M47.5 70C47.9997 69.9813 49.0176 70.4436 49.055 71.4429C49.0924 72.4422 48.1117 72.9792 47.6121 72.9979C46.5083 73.0392 45.5884 72.4015 45.5574 71.5737C45.5265 70.7458 46.3962 70.0413 47.5 70Z" fill="black"/>
<path d="M24.0033 86.9586C23.5102 86.8758 22.5852 86.243 22.7724 85.231C22.9595 84.219 24 84 24.5 84C25.5 84 26.3612 84.9934 26.2241 85.8104C26.0869 86.6274 25.0927 87.1415 24.0033 86.9586Z" fill="black"/>
<path d="M70.5 144.001C70 144.001 69.0004 143.5 69.0012 142.5C69.002 141.5 70.0024 141.001 70.5024 141.001C71.6069 141.002 72.5018 141.674 72.5012 142.503C72.5005 143.331 71.6046 144.002 70.5 144.001Z" fill="black"/>
<path d="M55.5644 23.9541C55.3763 23.4909 55.4633 22.3762 56.3898 22C57.3163 21.6238 58.1558 22.3621 58.3439 22.8254C58.7595 23.8488 58.4742 24.9311 57.7067 25.2428C56.9391 25.5545 55.98 24.9776 55.5644 23.9541Z" fill="black"/>
<path d="M56.6361 56.6617C56.3748 56.2354 56.2785 55.1215 57.1311 54.5989C57.9837 54.0764 58.9326 54.6677 59.1939 55.094C59.7711 56.0357 59.6665 57.1501 58.9602 57.583C58.2538 58.0159 57.2133 57.6034 56.6361 56.6617Z" fill="black"/>
<path d="M58.8979 126.962C59.1897 126.556 60.1793 126.035 60.9914 126.619C61.8034 127.202 61.606 128.293 61.3342 128.712C60.5 130 59.6217 129.945 58.949 129.461C58.2762 128.978 58.2534 127.859 58.8979 126.962Z" fill="black"/>
<path d="M60.3555 93.5005C60.6473 93.0945 61.6369 92.5742 62.449 93.1577C63.261 93.7413 63.0636 94.8315 62.7918 95.2512C61.9576 96.5389 61.0793 96.4834 60.4066 96C59.7338 95.5166 59.711 94.3975 60.3555 93.5005Z" fill="black"/>
<path d="M33.6105 130.116C33.3492 129.69 33.2529 128.576 34.1055 128.053C34.9581 127.531 35.907 128.122 36.1683 128.548C36.7455 129.49 36.6409 130.604 35.9346 131.037C35.2283 131.47 34.1877 131.058 33.6105 130.116Z" fill="black"/>
<path d="M15.8607 100.316C16.1449 100.727 16.302 101.834 15.4792 102.402C14.6565 102.971 13.6767 102.432 13.3925 102.021C12.7646 101.112 12.8082 99.9935 13.4898 99.5226C14.1714 99.0517 15.2329 99.4067 15.8607 100.316Z" fill="black"/>
<path d="M97 16.0003C97.5 16.0002 98.5002 16.5 98.5004 17.5C98.5006 18.5 97.5007 19.0002 97.0007 19.0003C95.8961 19.0005 95.0005 18.3292 95.0004 17.5007C95.0002 16.6723 95.8955 16.0005 97 16.0003Z" fill="black"/>
<path d="M113.499 16C113.999 15.9999 114.999 16.4997 115 17.4997C115 18.4997 114 18.9999 113.5 19C112.395 19.0002 111.5 18.3289 111.5 17.5004C111.499 16.672 112.395 16.0002 113.499 16Z" fill="black"/>
<path d="M100.499 32C100.999 31.9999 101.999 32.4997 102 33.4997C102 34.4997 101 34.9999 100.5 35C99.3954 35.0002 98.4999 34.3289 98.4997 33.5004C98.4995 32.672 99.3948 32.0002 100.499 32Z" fill="black"/>
<path d="M130 115C130.5 115 131.5 115.5 131.5 116.5C131.501 117.5 130.501 118 130.001 118C128.896 118.001 128.001 117.329 128 116.501C128 115.672 128.895 115.001 130 115Z" fill="black"/>
<path d="M111 143C111.5 143 112.5 143.5 112.5 144.5C112.501 145.5 111.501 146 111.001 146C109.896 146.001 109.001 145.329 109 144.501C109 143.672 109.895 143.001 111 143Z" fill="black"/>
<path d="M50 153C50.5 153 51.5001 153.5 51.5003 154.5C51.5006 155.5 50.5007 156 50.0007 156C48.8961 156.001 48.0005 155.329 48.0003 154.501C48.0002 153.672 48.8955 153.001 50 153Z" fill="black"/>
<path d="M146.499 115C146.999 115 147.999 115.5 148 116.5C148 117.5 147 118 146.5 118C145.395 118.001 144.5 117.329 144.5 116.501C144.499 115.672 145.395 115.001 146.499 115Z" fill="black"/>
<path d="M134.5 96.5003C135 96.5002 136 97 136 98C136 99 135 99.5002 134.5 99.5003C133.396 99.5006 132.5 98.8292 132.5 98.0008C132.5 97.1723 133.395 96.5006 134.5 96.5003Z" fill="black"/>
<path d="M90.4994 47C90.9994 46.9999 91.9995 47.4997 91.9997 48.4997C91.9999 49.4997 91 49.9999 90.5 50C89.3954 50.0002 88.4999 49.3289 88.4997 48.5004C88.4995 47.672 89.3948 47.0002 90.4994 47Z" fill="black"/>
<path d="M109 19C108.5 19 107.5 18.5 107.5 17.5C107.5 16.5 108.5 16 109 16C110.105 16 111 16.6716 111 17.5C111 18.3284 110.105 19 109 19Z" fill="black"/>
<path d="M111.5 35C111 35 110 34.5 110 33.5C110 32.5 111 32 111.5 32C112.605 32 113.5 32.6716 113.5 33.5C113.5 34.3284 112.605 35 111.5 35Z" fill="black"/>
<path d="M94 35C93.5 35 92.5 34.5 92.5 33.5C92.5 32.5 93.5 32 94 32C95.1046 32 96 32.6716 96 33.5C96 34.3284 95.1046 35 94 35Z" fill="black"/>
<path d="M142 118C141.5 118 140.5 117.5 140.5 116.5C140.5 115.5 141.5 115 142 115C143.105 115 144 115.672 144 116.5C144 117.328 143.105 118 142 118Z" fill="black"/>
<path d="M119.5 133.5C119 133.5 118 133 118 132C118 131 119 130.5 119.5 130.5C120.605 130.5 121.5 131.172 121.5 132C121.5 132.828 120.605 133.5 119.5 133.5Z" fill="black"/>
<path d="M141.5 86C141 86 140 85.5 140 84.5C140 83.5 141 83 141.5 83C142.605 83 143.5 83.6716 143.5 84.5C143.5 85.3284 142.605 86 141.5 86Z" fill="black"/>
<path d="M103 62C102.5 62 101.5 61.5 101.5 60.5C101.5 59.5 102.5 59 103 59C104.105 59 105 59.6716 105 60.5C105 61.3284 104.105 62 103 62Z" fill="black"/>
<path d="M61.9948 43.1645C61.952 43.6627 61.3682 44.6162 60.3719 44.5306C59.3756 44.4449 58.963 43.4058 59.0058 42.9076C59.1004 41.8071 59.8462 40.9725 60.6716 41.0434C61.497 41.1144 62.0894 42.064 61.9948 43.1645Z" fill="black"/>
<path d="M47.5 2.5C47.6953 9.52944 47.5 20 47.5 20M47.5 2.5C42.5 2.91667 38.5 4.5 34.5 10.5C32.3878 13.6684 40 29 37 30C36 30.3333 27.5 23 27 25C26.5 27 21.5 56.7 31.5 71.5C41.5 86.3 51.6667 84.3333 55.5 81.5C59.554 78.5036 63.6429 74.023 66.5255 67.8159M47.5 2.5C53.5 2 61.5 6.3 65.5 17.5M47.5 2.5H115C123 3.5 134.162 15.5763 136 33.5M70.5 48.5C70.5 42.8333 69.5 28.7 65.5 17.5M70.5 48.5C70.5 56.2383 68.9338 62.6297 66.5255 67.8159M70.5 48.5H90.5M65.5 17.5H97M66.5255 67.8159L58 56M35 44C35.3333 52.6667 38.3 70.3 47.5 71.5M57 23.5C59.5 27.5 60.9 37.4 60.5 43M136 33.5H111.5M136 33.5C136.493 38.3068 136.591 42.829 136.391 47M129 73.5C131.046 70.9154 133.092 66.4427 134.527 60.5M129 73.5C132.5 73.5 141.5 73.4 143.5 75C145.833 77.1667 150.8 82.1 152 84.5M129 73.5C111.913 73.5 79.117 73.5 70.5 73.5M94 33.5H100.5M113.5 17.5H109M136.391 47L111.5 60.5M136.391 47C136.15 52.0556 135.47 56.5951 134.527 60.5M111.5 60.5H103M111.5 60.5H134.527M142 116.5H146.5M142 84.5H152M152 84.5C156.167 91.5 163.1 110.8 157.5 132M52.5 138C43 115.5 50.5 94 54 85.5C57.5 77 65.5 73.5 68.5 73.5C68.7604 73.5 69.4511 73.5 70.5 73.5M52.5 138L60 128M52.5 138C58.6157 152.485 67.5158 155.205 73.3643 154.5M94 116.5H130M94 116.5C94.0972 113 92.6666 102.333 91.5 97.5M94 116.5C93.7301 126.217 90.865 136.707 85.8041 144.5M70.5 73.5V91.5M70.5 73.5C74.8333 74.1667 84.1 77.5 86.5 85.5M86.5 85.5C86.5 85.5 80.5 97.5 78.5 101C77.9988 101.877 91.5 97.5 91.5 97.5M86.5 85.5L113.014 98M91.5 97.5L113.014 98M134.527 98H113.014M61.5 94.5C60.1666 98 58 107.2 58 114M83.5 114.5C83.1666 123.667 80.1 142.1 70.5 142.5M85.8041 144.5C83.3646 148.256 80.415 151.386 77 153.5C76.0235 153.956 74.7837 154.329 73.3643 154.5M85.8041 144.5H111M157.5 132H131M157.5 132C156.333 135.333 153.5 142.5 151 145.5M119.5 132H131M131 132L151 145.5M151 145.5C149.5 148 144 154 139 154.5H73.3643M12 114C12.1666 117.833 12.9 126.3 14.5 129.5M24.5 85.5C28.8333 86.6667 37.5 94.1 37.5 114.5M24.5 137V154.5M24.5 154.5H50M24.5 154.5C35.7 154.5 40.3824 145 42.5 141M24.5 154.5C19.3333 154.167 8.73077 148.5 4.50001 132C-0.371785 113 3.5 98 6.49998 90.5M35 129.5L42.5 141M42.5 141C52 120.5 45.8333 95.1667 41 85.5C39 81.5 32.9 73.5 24.5 73.5C16.1 73.5 8.99998 84.8333 6.49998 90.5M14.5 101L6.49998 90.5" stroke="black" stroke-width="3"/>
<path d="M50 43C50 45.7614 48.8807 48 47.5 48C46.1193 48 45 45.7614 45 43C45 40.2386 46.1193 38 47.5 38C48.8807 38 50 40.2386 50 43Z" fill="black"/>
<path d="M27 114C27 116.761 25.8807 119 24.5 119C23.1193 119 22 116.761 22 114C22 111.239 23.1193 109 24.5 109C25.8807 109 27 111.239 27 114Z" fill="black"/>
<path d="M73 114C73 116.761 71.8807 119 70.5 119C69.1193 119 68 116.761 68 114C68 111.239 69.1193 109 70.5 109C71.8807 109 73 111.239 73 114Z" fill="black"/>
</svg>
